HIERARCHY
ROOT Hips
{
     OFFSET 1.88212 96.90440 -13.34250
     CHANNELS 6 Xposition Yposition Zposition Zrotation Xrotation Yrotation
     JOINT Spine
     {
          OFFSET 0.00000 11.89050 0.00000
          CHANNELS 3 Zrotation Xrotation Yrotation
          JOINT Spine1
          {
               OFFSET -0.00000 25.65740 0.12766
               CHANNELS 3 Zrotation Xrotation Yrotation
               JOINT HEad
               {
                    OFFSET 0.00000 8.73416 0.01134
                    CHANNELS 3 Zrotation Xrotation Yrotation
                    End Site
                    {
                         OFFSET -0.29000 12.77420 2.51395
                    }
               }
               JOINT LeftShoulder1
               {
                    OFFSET 8.99000 -0.36225 -0.22000
                    CHANNELS 3 Zrotation Xrotation Yrotation
                    JOINT LeftArm
                    {
                         OFFSET 10.28270 -0.00338 0.32212
                         CHANNELS 3 Zrotation Xrotation Yrotation
                         JOINT LeftForeArm
                         {
                              OFFSET 32.76690 0.09914 -1.42434
                              CHANNELS 3 Zrotation Xrotation Yrotation
                              JOINT LeftHand
                              {
                                   OFFSET 27.56430 0.08536 1.02216
                                   CHANNELS 3 Zrotation Xrotation Yrotation
                                   End Site
                                   {
                                        OFFSET 16.74430 -0.60000 1.50291
                                   }
                              }
                         }
                    }
               }
               JOINT RightShoulder
               {
                    OFFSET -8.99000 -0.36225 -0.22000
                    CHANNELS 3 Zrotation Xrotation Yrotation
                    JOINT RightArm
                    {
                         OFFSET -10.28270 -0.00338 0.32212
                         CHANNELS 3 Zrotation Xrotation Yrotation
                         JOINT RightForeArm
                         {
                              OFFSET -32.89710 0.09914 -1.42434
                              CHANNELS 3 Zrotation Xrotation Yrotation
                              JOINT RightHand
                              {
                                   OFFSET -27.49210 0.08536 1.02216
                                   CHANNELS 3 Zrotation Xrotation Yrotation
                                   End Site
                                   {
                                        OFFSET -16.63120 -0.60000 1.50291
                                   }
                              }
                         }
                    }
               }
          }
     }
     JOINT LeftUpLeg
     {
          OFFSET 8.94580 -8.66707 0.10165
          CHANNELS 3 Zrotation Xrotation Yrotation
          JOINT LeftLeg
          {
               OFFSET 0.00000 -44.42270 1.37270
               CHANNELS 3 Zrotation Xrotation Yrotation
               JOINT LeftFoot
               {
                    OFFSET -0.25355 -42.09240 -1.46059
                    CHANNELS 3 Zrotation Xrotation Yrotation
                    JOINT LeftToes
                    {
                         OFFSET -0.04000 -4.41509 8.49910
                         CHANNELS 3 Zrotation Xrotation Yrotation
                         End Site
                         {
                              OFFSET 0.08000 -0.04745 9.77979
                         }
                    }
               }
          }
     }
     JOINT RightUpLeg
     {
          OFFSET -8.94580 -8.66707 0.10165
          CHANNELS 3 Zrotation Xrotation Yrotation
          JOINT RightLeg
          {
               OFFSET 0.00000 -44.42270 1.37270
               CHANNELS 3 Zrotation Xrotation Yrotation
               JOINT RightFoot
               {
                    OFFSET 0.25355 -42.09240 -1.46059
                    CHANNELS 3 Zrotation Xrotation Yrotation
                    JOINT RightToes
                    {
                         OFFSET 0.04000 -4.41509 8.49910
                         CHANNELS 3 Zrotation Xrotation Yrotation
                         End Site
                         {
                              OFFSET -0.08000 -0.13745 9.77979
                         }
                    }
               }
          }
     }
}
MOTION
Frames: 10
Frame Time: 0.01667
85.52098 68.44749 -109.49125 -11.39823 -2.95701 -27.02833 3.94241 21.07032 3.62659 -0.02692 0.03770 0.05470 5.41439 -3.19844 7.87518 -7.94862 10.54539 7.36841 -109.78485 -53.95612 -91.93479 -42.82796 55.00450 -97.64234 6.05773 8.40281 -0.39584 12.67416 14.52579 13.58728 70.53780 -22.54247 76.13087 17.43593 46.68090 117.52534 -7.29867 3.31057 -1.80673 18.22296 -44.95441 32.09766 12.47330 77.59933 4.19431 75.52200 0.02018 -0.02355 -89.81470 -20.96886 -26.44878 -30.51571 -15.81418 -2.49482 -2.26344 40.22178 12.21199 33.08614 0.18738 0.11660 2.33218 6.09735 -19.83952 
88.77014 72.40605 -107.82437 -12.63605 -2.12254 -30.45383 7.23136 19.22821 1.34073 -0.02479 0.03505 0.05190 2.36784 2.62988 9.53092 -11.12625 11.30912 11.61035 -108.11419 -54.60753 -89.95850 -42.30405 55.68136 -99.28506 6.82835 8.75945 2.08415 9.16298 16.67494 17.34622 70.44387 -23.21696 75.29497 18.78377 46.46465 116.72742 -7.71014 8.79689 -0.51438 15.23254 -40.14456 30.45098 13.25020 70.60286 2.13731 55.28856 -0.11692 0.79062 -67.37750 -27.51602 -19.67320 -27.22299 -14.19631 -5.67351 -0.73700 44.57907 15.37322 30.56920 -0.01702 -0.11519 14.34471 13.22263 -23.45357 
91.75938 76.30714 -106.23828 -13.37450 -1.49075 -33.39389 9.64788 17.76375 -0.42766 -0.02258 0.03278 0.04887 -0.74362 7.46197 11.00828 -13.79807 11.60337 15.07152 -106.05113 -55.14900 -87.50585 -41.40149 56.35682 -101.25127 6.81103 8.53066 0.25515 6.28275 18.14009 20.53365 70.04223 -23.93555 74.12629 20.20376 46.26707 116.10056 -6.78651 4.67517 -1.07602 12.10655 -35.60350 28.11982 13.10360 62.82691 -0.07613 35.17523 -0.56493 1.05329 -48.68865 -6.95411 -25.84992 -23.32338 -12.65447 -9.06305 -1.07951 51.30590 18.93524 32.80856 0.10541 0.10739 -1.64047 3.22938 -15.24446 
94.62723 80.23035 -104.82831 -13.64054 -1.04851 -35.94965 11.25024 16.59720 -1.70450 -0.02136 0.03069 0.04445 -3.72734 11.40461 12.30717 -15.98984 11.63212 17.66300 -104.20615 -55.71740 -85.36844 -40.51950 56.93491 -102.96839 7.26501 9.03476 1.79872 4.09333 19.13356 22.95784 69.32825 -24.64218 72.70567 21.55980 46.07689 115.74212 -6.77151 8.29963 -0.61250 9.25916 -31.51647 25.21417 14.17485 55.65013 -4.93128 23.65758 -0.71821 0.55611 -37.47597 -14.73868 -14.21954 -18.82303 -10.80282 -12.30749 -2.32800 58.85751 22.36706 34.83415 0.07606 0.15577 3.60835 10.19442 -15.49569 
97.16862 83.84296 -103.66332 -11.56623 -1.13107 -38.72176 10.17373 14.87391 -1.75699 -0.01902 0.02938 0.04064 -6.43380 14.56388 13.40324 -17.70435 11.49860 19.49182 -102.54002 -56.16529 -83.50809 -39.55633 57.46170 -104.50368 7.26249 8.80263 0.59397 2.37803 19.74245 24.73507 68.61189 -25.30080 71.20198 22.77445 45.95087 115.56138 -6.26002 6.06829 -0.76634 5.20841 -28.77841 22.37884 14.33988 48.32758 -9.00994 11.84074 -0.84278 0.53397 -17.99772 -2.03584 -19.92879 -15.59524 -9.42974 -14.76668 -3.20590 66.26794 24.52874 35.70657 0.02534 0.08436 6.69035 6.63892 -8.49392 
99.38979 87.01792 -102.85223 -9.57927 -1.33205 -41.13476 8.05203 14.28173 -0.73513 -0.08471 0.09336 0.08209 -7.60406 16.22782 13.49583 -17.81092 10.56559 19.74382 -101.01330 -56.49788 -81.82090 -38.58572 57.89083 -105.77114 7.60664 9.12806 1.43849 2.42513 19.11252 25.18076 67.78809 -25.80181 69.57559 23.73573 45.94476 115.61966 -6.05594 8.30158 -0.41438 1.53548 -26.50334 18.56672 14.37123 41.06835 -12.23880 -0.41725 -0.98935 0.41567 -11.77421 -3.88624 -7.65104 -11.79444 -7.01120 -16.46267 -3.47270 69.32598 24.19659 23.25934 -0.24657 -0.58037 4.86927 -0.43658 -6.84250 
101.43701 89.64763 -102.41840 -5.78735 -1.76683 -44.03236 4.17933 12.60619 1.29700 -0.00840 0.01918 0.02615 -8.64866 17.59155 13.61989 -17.60796 9.82338 19.38909 -99.83830 -56.96509 -80.40498 -37.63217 58.19236 -106.75684 7.58882 8.91380 0.44643 2.80076 18.47228 25.10157 66.87334 -25.99874 67.93362 24.43372 46.02009 115.77077 -5.87774 7.43305 -0.35757 -3.00790 -25.75739 14.66441 14.93047 34.09712 -14.36756 -13.34868 -1.06838 0.21038 15.53251 0.68356 -9.92370 -9.38953 -4.79837 -16.92642 -3.07443 68.25295 22.21354 19.11854 -0.03619 -0.16397 -1.42710 -19.36913 2.17816 
103.18047 91.67538 -102.32993 -2.52556 -2.21469 -46.57457 0.76773 11.01462 3.10583 -0.00373 0.01151 0.01825 -9.30475 18.53507 13.65682 -16.89224 9.10418 18.53397 -98.92711 -57.44955 -79.23212 -36.87572 58.30945 -107.34635 7.73475 9.18109 0.76590 3.65590 17.67098 24.63535 65.96363 -25.96386 66.41381 24.82569 46.11512 115.95867 -5.74982 8.90628 0.14062 -6.88787 -25.13495 9.67966 16.04709 27.97188 -15.36991 -26.76991 -1.05630 -0.05512 16.20239 2.15525 2.55003 -7.09147 -1.39980 -16.75722 -1.70557 62.26578 18.04652 11.14338 -0.19074 0.00497 -1.03796 -30.95107 -0.36532 
104.69379 93.14037 -102.50753 0.20466 -2.59208 -48.83025 -2.18552 9.53661 4.71858 -0.00304 0.00885 0.01418 -9.67267 19.14007 13.68951 -15.77963 8.50334 17.47275 -98.34689 -57.87333 -78.41856 -36.46022 58.19588 -107.51315 7.65063 9.14763 0.01681 4.68405 16.81581 23.89180 65.32555 -25.67941 65.22556 25.00124 46.22936 116.11664 -5.80447 8.41965 0.46252 -9.89650 -24.56785 3.89166 17.50584 23.14316 -15.44337 -40.29669 -0.94101 -0.32972 37.41150 3.76330 -9.40074 -5.38078 1.97523 -16.69017 -1.97209 53.79248 15.57383 7.60342 -0.16368 0.07199 -7.08480 -40.76594 -3.89533 
106.28072 93.88680 -102.85818 2.39930 -2.85483 -50.92320 -4.67130 8.22727 6.20134 -0.00470 0.01344 0.01146 -9.79201 19.42521 13.75216 -8.30348 8.86242 5.49447 -107.83762 -68.30427 -81.82086 -36.42056 58.14143 -107.91638 7.51061 9.07184 0.03228 10.47458 12.19905 11.45406 61.98923 -13.63831 65.00330 25.10071 46.20621 115.67198 -5.94495 9.61501 0.95807 -11.81638 -24.21696 -2.40907 16.15505 20.28014 -14.17330 -30.78712 0.53972 0.22164 20.31546 5.58884 2.06706 -4.24485 5.09275 -16.63490 -3.04067 44.18262 14.27738 0.33901 -0.22028 0.26347 12.83068 -33.90594 -11.88302 
